<svg width="200" height="65" viewBox="0 0 200 65" fill="none" xmlns="http://www.w3.org/2000/svg">
<g clip-path="url(#clip0)">
<path d="M0 23.328V28.3006H0.928962C0.928962 27.566 1.03825 26.8314 1.36612 26.1533C1.5847 25.7013 1.91257 25.3057 2.34973 25.0232C2.78689 24.7407 3.27869 24.6276 3.77049 24.5711C4.31694 24.5146 4.91803 24.5146 5.57377 24.5146C6.01093 24.5146 6.39344 24.5146 6.8306 24.5711C7.10383 24.5711 7.3224 24.6276 7.59563 24.7407C7.75956 24.7972 7.86885 24.8537 7.9235 24.9667C7.97814 25.0797 8.03279 25.1927 7.97814 25.3622V39.2064C7.97814 39.6585 7.9235 40.167 7.86885 40.6191C7.81421 40.9581 7.65027 41.2972 7.43169 41.5797C7.15847 41.8622 6.8306 42.0318 6.44809 42.1448C5.90164 42.3143 5.30055 42.3708 4.7541 42.3708V43.3879H14.2623V42.4273C13.6612 42.4273 13.1148 42.3708 12.5683 42.2013C12.1858 42.0883 11.8579 41.9187 11.5847 41.6362C11.3661 41.3537 11.2022 41.0146 11.1475 40.6756C11.0929 40.2235 11.0383 39.715 11.0383 39.2629V25.1927C11.0383 25.0797 11.0383 24.9102 11.1475 24.7972C11.2568 24.6842 11.3661 24.5711 11.5301 24.5711C11.8033 24.5146 12.0765 24.4581 12.4044 24.4581C12.7869 24.4581 13.2787 24.4016 13.8798 24.4016C14.4809 24.4016 15.1366 24.4581 15.7377 24.5711C16.1749 24.6842 16.612 24.9102 16.9945 25.1927C17.3771 25.5318 17.6503 25.9273 17.8142 26.3794C18.0328 27.0009 18.1421 27.6225 18.1421 28.2441H19.1803L18.9071 23.2715L0 23.328Z" fill="white"/>
<path d="M35.7914 41.806C35.6275 41.5235 35.5182 41.1845 35.5182 40.8454C35.5182 40.4499 35.4636 39.8848 35.4636 39.1502V35.0252C35.4636 34.1211 35.4089 33.2735 35.245 32.4259C35.1357 31.8608 34.9171 31.3523 34.5892 30.8437C34.2067 30.3351 33.6603 29.9396 33.1138 29.7136C32.4581 29.431 31.7477 29.2615 30.9827 29.2615C30.4909 29.2615 30.0537 29.318 29.5619 29.431C29.0701 29.544 28.633 29.7136 28.1958 29.9396C27.7586 30.1656 27.3761 30.3916 26.9936 30.6742C26.6111 30.9567 26.3379 31.2392 26.0646 31.6348H25.9554V21.7461L21.3105 22.7067V23.5543C21.6384 23.5543 21.9116 23.5543 22.2395 23.6108C22.4581 23.6108 22.6767 23.6673 22.8406 23.7803C23.0045 23.8368 23.1138 23.9499 23.1685 24.1194C23.2778 24.2889 23.3324 24.4584 23.3324 24.6279C23.4417 25.08 23.4417 25.5321 23.4417 26.0406C23.4417 26.6622 23.4963 27.4533 23.4963 28.4704V39.3197C23.4963 39.8283 23.4963 40.3368 23.4417 40.9019C23.4417 41.241 23.3324 41.5235 23.1685 41.806C23.0045 42.0321 22.786 42.1451 22.5127 42.2016C22.1302 42.2581 21.7477 42.3146 21.3652 42.3711V43.2752H28.0319V42.3711C27.6493 42.3711 27.2668 42.3146 26.8843 42.2581C26.6111 42.2016 26.3925 42.0321 26.2286 41.806C26.0646 41.5235 25.9554 41.1845 25.9554 40.8454C25.9554 40.3934 25.9007 39.8848 25.9007 39.1502V34.7992C25.9007 34.5731 25.9007 34.3471 25.9554 34.1211C25.9554 33.9516 26.01 33.7255 26.1193 33.556C26.1739 33.3865 26.2286 33.217 26.3379 33.0475C26.6657 32.3694 27.2122 31.7478 27.8679 31.3523C28.5237 30.9567 29.234 30.7307 29.9991 30.7307C30.8734 30.6742 31.7477 31.1262 32.1849 31.9738C32.622 32.8214 32.8406 34.1776 32.8406 36.0988V39.3762C32.8406 39.8848 32.8406 40.3934 32.786 40.9584C32.786 41.2975 32.6767 41.58 32.5127 41.8625C32.3488 42.0886 32.1302 42.2016 31.857 42.3146C31.4745 42.3711 31.092 42.4276 30.7095 42.4276V43.3317H37.3761V42.4276C36.9936 42.4276 36.6111 42.3711 36.2286 42.3146C36.1193 42.2016 35.9007 42.0321 35.7914 41.806Z" fill="white"/>
<path d="M46.229 29.2617C45.3 29.2617 44.3164 29.4312 43.4421 29.8268C42.6224 30.1658 41.8574 30.6744 41.2563 31.296C40.6552 31.9741 40.1634 32.7651 39.8356 33.6128C39.5077 34.5734 39.3438 35.534 39.3438 36.5511C39.3438 37.5117 39.5077 38.4723 39.8356 39.3764C40.1088 40.2241 40.6006 40.9586 41.147 41.5802C41.7481 42.2018 42.4585 42.6538 43.2235 42.9929C44.0978 43.3319 44.9722 43.5014 45.9011 43.5014C47.9776 43.5014 49.9448 42.5408 51.2017 40.8456L50.4366 40.111C49.8902 40.7326 49.2891 41.2412 48.5787 41.6932C47.9776 42.0323 47.3219 42.2018 46.6115 42.1453C46.0104 42.1453 45.3547 42.0323 44.8082 41.7497C44.2618 41.4672 43.77 41.0717 43.3875 40.5631C42.9503 39.998 42.6771 39.3765 42.4585 38.6984C42.2399 37.9073 42.1306 37.0597 42.1306 36.2686V35.5905C42.1306 35.421 42.1853 35.2515 42.1853 35.0819H50.4366C50.6552 35.0819 50.8738 35.0819 51.0924 35.0254C51.2017 34.9689 51.2017 34.7994 51.2017 34.5734C51.4749 31.9741 49.6716 29.6008 47.158 29.3182C46.8301 29.2052 46.5022 29.2052 46.229 29.2617ZM48.5241 33.4997C48.4694 33.6128 48.4148 33.6693 48.3055 33.7258C48.1416 33.7823 48.0323 33.8388 47.8683 33.8388H42.4585C42.8957 31.5785 44.0432 30.5049 45.8465 30.5049C46.5569 30.4484 47.3219 30.7309 47.8683 31.2395C48.3601 31.748 48.6334 32.4261 48.6334 33.1607C48.5787 33.2172 48.5787 33.3867 48.5241 33.4997Z" fill="white"/>
<path d="M77.4322 26.2098C76.4486 25.3057 75.3557 24.5711 74.0988 24.0626C72.7874 23.554 71.3666 23.2715 69.8912 23.2715H61.0934V24.2886C61.5305 24.2886 61.9677 24.3451 62.3502 24.4581C62.6234 24.5146 62.8966 24.6842 63.1152 24.9102C63.3338 25.1927 63.4431 25.4753 63.4977 25.8143C63.5524 26.3229 63.607 26.7749 63.607 27.2835V39.3759C63.607 39.8845 63.5524 40.3931 63.4977 40.8451C63.4431 41.1842 63.2792 41.4667 63.0606 41.7492C62.7874 41.9752 62.4595 42.1448 62.1316 42.2013C61.6398 42.3143 61.0934 42.3143 60.6016 42.3143V43.3314H70.4376C71.8037 43.3314 73.1699 43.1054 74.4813 42.5968C75.6289 42.1448 76.7218 41.4667 77.6508 40.6191C78.5251 39.7715 79.2355 38.6979 79.6726 37.5677C80.1644 36.3246 80.4376 34.9684 80.383 33.6122C80.383 32.1996 80.1098 30.7869 79.618 29.4872C79.1262 28.2441 78.3611 27.1139 77.4322 26.2098ZM75.301 39.8845C74.0988 41.2972 72.2956 42.0318 70.0551 42.0318C67.5415 42.0318 66.3393 41.0146 66.3393 39.0934V25.0232C66.2846 24.7972 66.4486 24.6276 66.6671 24.5711H69.9458C70.9841 24.5711 72.0223 24.7407 72.9513 25.1927C73.8256 25.5883 74.5906 26.2098 75.2464 27.0009C75.9021 27.8485 76.3939 28.8092 76.6671 29.8263C76.995 31.0694 77.2136 32.3691 77.1589 33.6687C77.1043 36.3811 76.5032 38.4718 75.301 39.8845Z" fill="white"/>
<path d="M94.6998 41.9766C94.4812 42.0331 94.2627 42.0896 94.0441 42.0896C93.279 42.0896 92.8965 41.129 92.8965 39.1512V33.331C92.8965 31.8618 92.5687 30.8447 91.8583 30.2231C91.1479 29.6016 90.0004 29.319 88.3064 29.319C87.0495 29.2625 85.7927 29.4885 84.6452 29.9971C83.8801 30.3361 83.3883 31.0707 83.3883 31.9183C83.279 32.5399 83.6615 33.105 84.2626 33.218H84.3173H84.3719C84.4812 33.218 84.5905 33.218 84.6998 33.218C84.973 33.218 85.2462 33.1615 85.4648 32.992C85.7381 32.7094 85.902 32.3704 86.0113 31.9748C86.0659 31.6923 86.1752 31.4098 86.3391 31.1272C86.4484 30.9012 86.5577 30.7317 86.7217 30.6187C86.8856 30.5057 87.0495 30.3927 87.2135 30.3361C87.432 30.2796 87.7053 30.2231 87.9238 30.2796C89.6725 30.2796 90.5468 31.3533 90.5468 33.444V34.5177L86.9402 36.1564C86.2845 36.4389 85.6288 36.7779 85.0277 37.1735C84.5905 37.456 84.1534 37.7951 83.7708 38.1906C83.2244 38.8122 82.8965 39.6033 82.8965 40.4509C82.8419 41.2985 83.1697 42.1461 83.7708 42.7111C84.4812 43.2762 85.3555 43.6153 86.2845 43.5587C87.1588 43.5587 88.0331 43.2762 88.7982 42.8242C89.5632 42.3156 90.1643 41.6375 90.6014 40.7899H90.7107C90.6561 41.5245 90.8747 42.2591 91.2572 42.8242C91.6397 43.3327 92.2954 43.6153 92.8965 43.5587C93.4976 43.5587 94.0441 43.4457 94.5905 43.1632C95.0277 42.9372 95.4102 42.5981 95.6834 42.1461L95.3555 41.5245C95.137 41.7505 94.973 41.9201 94.6998 41.9766ZM90.4375 37.682C90.4375 38.2471 90.3829 38.8122 90.1643 39.3772C90.0004 39.8858 89.7818 40.3379 89.5085 40.7899C89.2353 41.129 88.9075 41.468 88.4703 41.6375C88.0878 41.8635 87.7053 41.9766 87.2681 41.9766C86.7217 41.9766 86.2299 41.807 85.7927 41.4115C85.4102 41.0159 85.2463 40.5074 85.2463 39.9988C85.2463 39.6033 85.3555 39.2077 85.5195 38.8687C85.7381 38.4731 86.0113 38.0776 86.3938 37.7951C86.8856 37.343 87.432 37.004 87.9785 36.7214C88.7435 36.2694 89.5632 35.9303 90.3829 35.5913L90.4375 37.682Z" fill="white"/>
<path d="M101.748 41.7497C101.584 41.4672 101.475 41.1282 101.42 40.7891C101.365 40.224 101.311 39.7155 101.311 39.1504V29.2617L96.3926 30.2788V31.2395C96.9937 31.183 97.5401 31.296 98.0866 31.4655C98.4144 31.635 98.633 31.9175 98.6877 32.3131C98.797 32.7651 98.797 33.1607 98.8516 33.6127C98.8516 34.2908 98.9062 35.0819 98.9062 36.099V39.433C98.9062 39.9415 98.8516 40.4501 98.797 40.9586C98.7423 41.2977 98.633 41.5802 98.4691 41.8627C98.2505 42.0888 98.0319 42.2583 97.7041 42.3148C97.3215 42.4278 96.8844 42.4843 96.5019 42.4843V43.3884H103.715V42.4843C103.332 42.4843 102.895 42.4278 102.513 42.3148C102.185 42.1453 101.912 41.9758 101.748 41.7497Z" fill="white"/>
<path d="M100.001 25.5882C100.82 25.5882 101.531 24.8536 101.531 24.006C101.531 23.1584 100.82 22.4238 100.001 22.4238C99.1811 22.4238 98.4707 23.1584 98.4707 24.006C98.4707 24.4016 98.6346 24.7971 98.9079 25.1362C99.1811 25.4187 99.6182 25.5882 100.001 25.5882Z" fill="white"/>
<path d="M109.781 41.7495C109.617 41.467 109.508 41.1279 109.453 40.7889C109.399 40.2803 109.344 39.7153 109.399 39.2067V21.7461L104.645 22.6502V23.5543C105.191 23.4978 105.792 23.6108 106.339 23.7803C106.666 23.9499 106.885 24.2324 106.94 24.5714C106.994 25.0235 107.049 25.419 107.104 25.8711C107.104 26.5492 107.158 27.2838 107.158 28.1879V39.4327C107.158 39.9413 107.158 40.3934 107.049 40.9019C106.994 41.241 106.885 41.5235 106.721 41.7495C106.502 41.9755 106.284 42.1451 106.011 42.2016C105.628 42.3146 105.191 42.3711 104.808 42.3711V43.2752H111.748V42.4276C111.366 42.4276 110.983 42.3711 110.601 42.2581C110.218 42.1451 109.945 41.9755 109.781 41.7495Z" fill="white"/>
<path d="M122.404 30.449C122.896 30.3925 123.388 30.449 123.825 30.6751C124.098 30.9011 124.207 31.2401 124.207 31.5792C124.207 31.7487 124.207 31.8617 124.153 32.0312C124.098 32.2007 124.044 32.4268 123.989 32.5963C123.934 32.8223 123.825 33.1049 123.661 33.5004C123.552 33.896 123.333 34.348 123.115 34.9131L120.82 40.7333H120.71L117.978 33.8394C117.759 33.3309 117.595 32.8788 117.486 32.3703C117.377 32.0312 117.322 31.6922 117.268 31.2966C117.268 30.7316 117.814 30.449 118.962 30.449V29.5449H112.295V30.449C112.568 30.449 112.841 30.5055 113.115 30.6186C113.333 30.6751 113.552 30.7881 113.716 30.9576C113.934 31.1271 114.098 31.3531 114.207 31.6357C114.426 31.9747 114.59 32.3703 114.754 32.7658L119.563 43.6151L118.688 45.4233C118.579 45.7059 118.415 45.9884 118.251 46.271C118.087 46.497 117.923 46.6665 117.705 46.836C117.486 47.0055 117.268 47.1186 117.049 47.1751C116.776 47.2881 116.448 47.3446 116.175 47.4011C115.628 47.4576 115.027 47.6271 114.535 47.9097C114.207 48.1357 114.044 48.4747 114.098 48.8703C114.098 49.6614 114.645 50.1134 115.683 50.1134C117.322 50.1134 118.524 49.2093 119.289 47.4576L124.754 34.8566C125.136 33.8959 125.519 33.1049 125.792 32.5398C126.011 32.0877 126.284 31.6357 126.557 31.2401C126.721 31.0141 126.94 30.7881 127.213 30.6751C127.486 30.562 127.759 30.562 128.033 30.562V29.6579H122.568L122.404 30.449Z" fill="white"/>
<path d="M153.661 32.1996C152.677 30.9564 151.584 29.8263 150.492 28.7527C149.836 28.1311 149.18 27.453 148.634 26.7184C148.196 26.1534 147.814 25.5883 147.541 24.9667C147.322 24.4582 147.158 23.9496 147.158 23.3845C147.158 22.8195 147.213 22.3109 147.377 21.7458C147.705 20.6722 148.47 19.7681 149.453 19.316C150.546 18.864 151.748 18.864 152.841 19.316C154.153 19.7116 155.191 20.6722 155.792 21.9154C156.502 23.4975 156.776 25.2493 156.612 26.9445L157.759 27.34L159.672 20.2201L158.961 19.9941L157.65 21.2938C157.158 20.3897 156.502 19.5986 155.737 18.9205C155.027 18.2989 154.207 17.8469 153.333 17.5643C152.349 17.2253 151.366 17.0558 150.328 17.1123C149.399 17.1688 148.415 17.4513 147.595 17.9034C146.776 18.3554 146.011 19.0335 145.41 19.7681C144.754 20.6157 144.262 21.5763 143.934 22.5934C143.661 23.441 143.497 24.2886 143.497 25.1362C143.497 25.9838 143.661 26.7749 143.989 27.5095C144.371 28.4136 144.863 29.2612 145.519 30.0523C146.339 31.0695 147.213 32.0866 148.196 32.9907C148.961 33.7253 149.727 34.5164 150.382 35.364C150.874 35.9291 151.311 36.6071 151.639 37.2852C151.912 37.8503 152.022 38.4154 152.076 39.0369C152.076 39.602 152.022 40.1671 151.803 40.7321C151.475 42.0318 150.601 43.1054 149.399 43.6705C148.087 44.1791 146.666 44.1791 145.355 43.6705C144.481 43.388 143.606 42.8794 142.896 42.3143C142.186 41.7493 141.639 41.0147 141.202 40.2236C140.765 39.376 140.492 38.4719 140.382 37.5678C140.218 36.5506 140.273 35.477 140.437 34.4599L139.289 34.1208L137.158 41.9753L137.869 42.2013L139.289 40.7886C139.89 41.8623 140.655 42.8794 141.584 43.6705C142.459 44.4051 143.497 44.9701 144.59 45.3092C145.737 45.7047 146.994 45.8743 148.196 45.8743C149.289 45.8743 150.382 45.5917 151.421 45.1397C152.404 44.6876 153.278 44.0095 153.934 43.1619C154.699 42.2578 155.246 41.2407 155.574 40.1671C155.847 39.3195 156.011 38.4154 156.011 37.5112C155.956 36.6071 155.737 35.7595 155.355 34.9684C154.972 34.0078 154.371 33.0472 153.661 32.1996Z" fill="white"/>
<path d="M170.82 30.2223C171.257 30.1658 171.749 30.2223 172.186 30.3919C172.404 30.5614 172.568 30.8439 172.514 31.1264C172.514 31.296 172.514 31.4655 172.459 31.635C172.404 31.861 172.35 32.0871 172.295 32.3131C172.241 32.5391 172.131 32.8782 171.967 33.3302C171.803 33.7823 171.694 34.1778 171.475 34.7429L169.945 38.9244H169.836L166.503 29.2617H165.738L162.022 38.8679H161.913L160.219 32.6521L160.055 31.861C160 31.635 160 31.4655 160 31.2395C159.945 30.9004 160.109 30.6179 160.383 30.4484C160.82 30.2788 161.312 30.1658 161.749 30.2223V29.3182H155.082V30.2223C155.41 30.2223 155.683 30.2223 156.011 30.3353C156.23 30.3919 156.448 30.5049 156.667 30.6744C156.885 30.9004 157.049 31.1264 157.159 31.3525C157.322 31.748 157.486 32.1436 157.596 32.5391L160.874 43.3319H161.803L165.519 33.7823H165.574L168.634 43.3319H169.618L173.497 33.4432C173.771 32.7651 173.989 32.2001 174.153 31.8045C174.317 31.4655 174.481 31.1264 174.7 30.8439C174.863 30.6179 175.027 30.5049 175.246 30.3919C175.465 30.3353 175.683 30.2788 175.902 30.2788V29.3182H170.874L170.82 30.2223Z" fill="white"/>
<path d="M182.349 41.7497C182.131 41.4672 182.021 41.1282 182.021 40.7891C181.967 40.224 181.912 39.7155 181.912 39.1504V29.2617L176.994 30.2788V31.2395C177.595 31.183 178.142 31.296 178.688 31.4655C178.961 31.635 179.18 31.9175 179.235 32.3131C179.344 32.7651 179.344 33.1607 179.399 33.6127C179.399 34.2908 179.453 35.0819 179.453 36.099V39.433C179.453 39.9415 179.399 40.4501 179.344 40.9586C179.289 41.2977 179.18 41.5802 179.016 41.8627C178.797 42.0888 178.579 42.2583 178.306 42.3148C177.923 42.4278 177.486 42.4843 177.103 42.4843V43.3884H184.317V42.4843C183.934 42.4843 183.497 42.4278 183.114 42.3148C182.787 42.1453 182.513 41.9758 182.349 41.7497Z" fill="white"/>
<path d="M180.6 25.5882C181.475 25.5882 182.13 24.8536 182.13 24.006C182.13 23.1584 181.42 22.4238 180.6 22.4238C180.163 22.4238 179.781 22.5933 179.507 22.8759C178.906 23.4975 178.906 24.5146 179.507 25.1362C179.781 25.4187 180.163 25.5882 180.6 25.5882Z" fill="white"/>
<path d="M199.509 29.7138C199.071 29.4312 198.58 29.2617 198.088 29.2617C197.651 29.2617 197.214 29.3747 196.886 29.6008C196.339 29.8833 195.847 30.2223 195.356 30.6744C194.864 30.2223 194.317 29.8833 193.662 29.6573C193.006 29.4312 192.296 29.2617 191.585 29.3182C190.929 29.3182 190.219 29.4312 189.618 29.6573C189.017 29.8833 188.525 30.1658 188.033 30.6179C187.596 31.0134 187.268 31.522 186.995 32.0871C186.722 32.6521 186.612 33.2737 186.612 33.8953C186.612 34.3473 186.667 34.7994 186.831 35.1949C186.94 35.5905 187.159 35.986 187.377 36.3816C187.596 36.7206 187.869 37.0597 188.197 37.3422C188.525 37.6247 188.853 37.7943 189.235 37.9638V38.0768C188.525 38.1898 187.924 38.4723 187.432 38.9809C186.995 39.3764 186.722 39.998 186.722 40.5631C186.722 41.2412 186.94 41.8627 187.432 42.2583C188.033 42.7104 188.798 42.9929 189.563 43.0494C189.782 43.0494 190.055 43.1059 190.383 43.1624L191.531 43.2754L192.787 43.4449C193.224 43.5014 193.607 43.558 194.044 43.6145C194.645 43.7275 195.192 44.01 195.629 44.4621C196.066 44.9141 196.339 45.5357 196.285 46.1573C196.285 47.9655 194.864 48.8696 191.968 48.8696C190.875 48.9261 189.837 48.7001 188.853 48.248C188.197 47.909 187.76 47.2309 187.76 46.4963C187.76 45.9877 187.924 45.5357 188.197 45.0836C188.47 44.6881 188.853 44.4056 189.29 44.3491C188.853 43.9535 188.306 43.784 187.76 43.784C187.487 43.784 187.159 43.8405 186.886 44.01C186.612 44.123 186.394 44.349 186.175 44.5751C185.957 44.8011 185.793 45.0836 185.684 45.4227C185.356 46.2703 185.465 47.1744 185.957 47.909C186.285 48.361 186.722 48.7566 187.214 49.0391C187.815 49.3782 188.525 49.6607 189.235 49.7737C190.055 49.9432 190.929 50.0562 191.804 50.0562C193.935 50.0562 195.52 49.6607 196.612 48.9261C197.705 48.1915 198.306 46.9484 198.252 45.6487C198.306 44.5751 197.869 43.558 197.159 42.7669C196.394 41.9758 195.356 41.4672 194.263 41.2977L193.17 41.1282C192.842 41.0717 192.514 41.0151 192.186 41.0151L191.203 40.9021C190.875 40.8456 190.492 40.8456 190.11 40.7891C189.673 40.7891 189.235 40.6761 188.798 40.5631C188.525 40.5066 188.361 40.224 188.361 39.9415C188.361 39.546 188.634 39.2634 188.962 39.2069C189.673 39.0374 190.383 38.9244 191.093 38.8679C192.569 38.8679 193.935 38.3593 195.082 37.3987C196.011 36.4946 196.449 35.2514 196.394 33.9518C196.394 33.1042 196.175 32.2566 195.738 31.522C196.066 31.2395 196.503 31.0699 196.94 31.0699C197.104 31.0699 197.268 31.1264 197.432 31.183L197.815 31.4655C197.924 31.5785 198.088 31.635 198.252 31.748C198.416 31.861 198.634 31.861 198.853 31.861C199.126 31.861 199.345 31.8045 199.563 31.5785C199.782 31.409 199.891 31.1264 199.837 30.9004C200 30.3919 199.837 29.9963 199.509 29.7138ZM193.279 36.7206C192.951 37.3422 192.296 37.7377 191.64 37.7377C190.929 37.7377 190.274 37.3422 189.891 36.7206C189.454 35.873 189.235 34.9124 189.235 33.9518C189.181 32.9912 189.399 32.0871 189.891 31.2395C190.274 30.6179 190.929 30.2223 191.585 30.2788C192.296 30.2788 192.897 30.6179 193.224 31.2395C193.662 32.0871 193.88 33.0477 193.826 34.0083C193.935 34.9124 193.716 35.873 193.279 36.7206Z" fill="white"/>
</g>
<defs>
<clipPath id="clip0">
<rect width="200" height="33" fill="white" transform="translate(0 17)"/>
</clipPath>
</defs>
</svg>
