<svg xmlns="http://www.w3.org/2000/svg" width="304.29" height="100" viewBox="0 0 304.29 100"><title>google</title><path d="M130.25,52.6a24.72,24.72,0,0,1-24.39,25.05h-.67A24.93,24.93,0,0,1,79.91,52.6a24.65,24.65,0,0,1,24.23-25.06H105C118.74,27.54,130.25,38,130.25,52.6Zm-11.06,0c0-9-6.55-15.13-14.11-15.13S91,43.57,91,52.6s6.55,15.12,14.11,15.12S119.19,61.51,119.19,52.6Z" fill="#ea4335"/><path d="M184.42,52.6a25.06,25.06,0,1,1,0-1C184.43,51.93,184.43,52.27,184.42,52.6Zm-11.06,0c0-9-6.54-15.13-14.1-15.13s-14.11,6.1-14.11,15.13,6.54,15.12,14.11,15.12S173.36,61.51,173.36,52.6Z" fill="#fbbc05"/><path d="M236.34,29V73.93c0,18.51-10.94,26.07-23.81,26.07a23.94,23.94,0,0,1-22.24-14.79l9.6-3.95c1.69,4.07,5.87,8.92,12.64,8.92,8.24,0,13.32-5.08,13.32-14.67V71.9h-.34a17.26,17.26,0,0,1-13.21,5.64c-12.53,0-23.93-11-23.93-24.94s11.52-25.17,23.93-25.17a17.49,17.49,0,0,1,13.21,5.64h.34V29Zm-9.7,23.7c0-8.8-5.87-15.24-13.32-15.24s-14,6.44-14,15.24,6.32,15.12,14,15.12c7.45-.1,13.32-6.42,13.32-15.11Z" fill="#4285f4"/><path d="M253.5,2.71V76.07H242.78V2.71Z" fill="#34a853"/><path d="M295.26,60.84l8.58,5.64A24.83,24.83,0,0,1,283,77.54c-14.22,0-24.83-11-24.83-25.06,0-14.78,10.72-24.94,23.59-24.94S301,37.92,303.16,43.45l1.13,2.83L270.88,60.16c2.6,5.08,6.55,7.56,12.19,7.56S292.44,65,295.26,60.84Zm-26.3-9,22.35-9.26c-1.24-3.16-5-5.3-9.26-5.3-5.53,0-13.31,4.82-13.05,14.53Z" fill="#ea4335"/><path d="M39.39,46.05V35.44H75.17a35.5,35.5,0,0,1,.56,6.43c0,8-2.14,17.84-9.25,24.83-6.77,7.11-15.58,11-27.09,11C18,77.65,0,60.16,0,38.83S18.06,0,39.39,0A36.9,36.9,0,0,1,66,10.72l-7.45,7.45a27,27,0,0,0-19.19-7.56A27.87,27.87,0,0,0,11.51,38.5v.33A27.87,27.87,0,0,0,39.08,67h.31C49.55,67,55.3,63,59,59.26c3-3,5-7.34,5.76-13.21Z" fill="#4285f4"/></svg>